<?xml version="1.0" encoding="UTF-8"?>
<svg id="Capa_2" data-name="Capa 2" xmlns="http://www.w3.org/2000/svg" viewBox="0 0 37.16 37.27">
  <defs>
    <style>
      .cls-1 {
        fill: #727176;
      }
    </style>
  </defs>
  <g id="Capa_1-2" data-name="Capa 1">
    <g>
      <path class="cls-1" d="m24.85,10.06c-.84,0-1.42.56-1.42,1.39,0,.84.55,1.39,1.41,1.4.78,0,1.38-.57,1.4-1.32.02-.77-.64-1.46-1.39-1.47Z"/>
      <path class="cls-1" d="m18.58,0C8.32,0,0,8.34,0,18.64s8.32,18.64,18.58,18.64,18.58-8.34,18.58-18.64S28.84,0,18.58,0Zm9.65,23.71c-.24,2.7-1.63,4.17-4.33,4.39-3.89.31-7.8.34-11.7-.05-2.3-.23-3.79-1.84-3.95-4.17-.24-3.76-.35-7.52-.03-11.29.24-2.8,1.95-4.46,4.78-4.55,1.73-.06,3.46-.01,5.19-.01h0c1.67-.01,3.34-.06,5.01,0,3.24.11,4.84,1.69,5.05,4.94.24,3.58.3,7.17-.02,10.75Z"/>
      <path class="cls-1" d="m18.32,11.76c-3.68,0-6.32,2.65-6.39,6.29-.08,4.2,3.02,6.38,6.2,6.42,3.6.06,6.39-2.8,6.38-6.42,0-3.56-2.7-6.29-6.2-6.29Zm-.16,10.42c-2.26-.02-4.06-1.88-4.02-4.17.04-2.24,1.84-4,4.1-4.01,2.24-.01,4.06,1.8,4.07,4.04.01,2.32-1.83,4.16-4.16,4.14Z"/>
    </g>
  </g>
</svg>