<?xml version="1.0" encoding="UTF-8"?>
<svg id="Capa_2" data-name="Capa 2" xmlns="http://www.w3.org/2000/svg" viewBox="0 0 37.11 37.11">
  <defs>
    <style>
      .cls-1 {
        fill: #727176;
      }
    </style>
  </defs>
  <g id="Capa_1-2" data-name="Capa 1">
    <path class="cls-1" d="m18.55,0C8.31,0,0,8.31,0,18.55s8.31,18.55,18.55,18.55,18.55-8.31,18.55-18.55S28.8,0,18.55,0Zm-4.76,26.85h-3.94v-12.73h3.94v12.73Zm-1.9-14.47c-1.28,0-2.31-1.04-2.31-2.31s1.03-2.31,2.31-2.31,2.31,1.03,2.31,2.31-1.03,2.31-2.31,2.31Zm16.66,14.47h-3.89v-6.22c0-1.47-.07-3.36-2.09-3.36s-2.47,1.6-2.47,3.26v6.32h-3.83v-12.73h3.83v1.75h0c.53-1,1.81-1.95,3.73-1.95,3.99,0,4.72,2.53,4.72,5.95v7Z"/>
  </g>
</svg>